<?xml version="1.0" standalone="no"?>
<!DOCTYPE svg PUBLIC "-//W3C//DTD SVG 20010904//EN"
 "http://www.w3.org/TR/2001/REC-SVG-20010904/DTD/svg10.dtd">
<svg version="1.0" xmlns="http://www.w3.org/2000/svg"
 width="1187.000000pt" height="519.000000pt" viewBox="0 0 1187.000000 519.000000"
 preserveAspectRatio="xMidYMid meet">
<metadata>
Created by potrace 1.15, written by Peter Selinger 2001-2017
</metadata>
<g transform="translate(0.000000,519.000000) scale(0.100000,-0.100000)"
fill="#000000" stroke="none">
<path d="M40 5050 l0 -90 180 0 180 0 0 -1160 0 -1160 85 0 85 0 0 1160 0
1160 180 0 180 0 0 90 0 90 -445 0 -445 0 0 -90z"/>
<path d="M8868 4383 l-3 -758 -57 -3 -58 -3 0 -84 0 -84 58 -3 57 -3 5 -273
c3 -171 9 -275 15 -280 6 -4 18 -27 27 -50 41 -105 124 -166 261 -194 73 -14
197 2 259 33 41 20 98 72 98 88 0 11 -45 51 -58 51 -6 0 -16 8 -21 18 -5 10
-21 24 -35 31 -22 12 -30 11 -63 -4 -21 -10 -41 -23 -45 -29 -4 -6 -34 -11
-66 -11 -43 0 -63 5 -77 19 -10 9 -29 22 -42 27 -14 5 -32 27 -43 51 -18 39
-20 67 -20 286 l0 242 115 0 115 0 0 85 0 85 -115 0 -115 0 0 760 0 760 -95 0
-95 0 -2 -757z"/>
<path d="M2500 4091 c0 -4 -27 -11 -60 -15 -98 -11 -242 -65 -275 -102 -5 -7
-32 -29 -60 -49 -27 -20 -57 -45 -65 -54 -25 -26 -80 -109 -80 -120 0 -5 -6
-14 -14 -18 -40 -23 -83 -170 -93 -314 -10 -156 36 -361 97 -429 17 -19 30
-38 30 -44 0 -14 43 -59 111 -116 29 -25 60 -53 68 -62 9 -10 20 -18 26 -18 5
0 23 -11 38 -24 69 -60 295 -98 455 -77 121 16 210 43 248 76 16 14 33 25 37
25 8 0 36 23 94 78 13 12 27 22 30 22 4 0 15 7 25 17 17 15 18 12 18 -105 l0
-122 85 0 85 0 0 715 0 715 -85 0 -85 0 0 -107 c0 -100 -1 -106 -16 -85 -8 12
-20 22 -25 22 -9 0 -95 64 -109 81 -9 11 -93 51 -146 69 -28 10 -82 21 -118
25 -36 4 -66 11 -66 16 0 5 -34 9 -75 9 -41 0 -75 -4 -75 -9z m204 -175 c76
-15 109 -28 134 -53 7 -7 19 -13 26 -13 21 0 162 -149 188 -197 13 -23 28 -43
34 -43 5 0 18 -21 27 -47 36 -100 15 -433 -27 -433 -6 0 -20 -19 -31 -43 -30
-65 -160 -187 -231 -216 -32 -14 -61 -28 -64 -31 -8 -10 -133 -30 -185 -30
-60 0 -175 21 -175 32 0 4 -6 8 -12 8 -7 0 -41 13 -75 29 -76 36 -180 136
-214 206 -13 28 -29 55 -35 62 -7 7 -15 29 -19 50 -4 21 -12 41 -18 45 -16 10
-17 246 -1 256 6 4 14 23 18 43 3 20 15 47 26 59 11 13 20 27 20 32 0 16 58
94 97 131 79 75 93 86 113 92 11 3 20 10 20 14 0 22 152 58 247 60 34 1 95 -6
137 -13z"/>
<path d="M7720 4090 c0 -5 -15 -10 -33 -10 -48 0 -143 -27 -217 -61 -35 -16
-67 -33 -70 -37 -12 -16 -90 -72 -100 -72 -6 0 -22 -11 -35 -25 l-25 -24 0
104 0 105 -90 0 -90 0 0 -715 0 -715 90 0 90 0 0 393 c0 418 9 511 48 546 11
9 29 36 42 61 28 57 158 185 207 205 21 9 40 20 43 25 12 19 163 43 240 37 74
-5 170 -26 180 -38 3 -3 20 -14 38 -23 40 -20 55 -33 134 -111 68 -68 124
-170 134 -247 4 -31 11 -48 20 -48 12 0 14 -68 14 -400 l0 -400 85 0 85 0 -1
383 c0 210 -4 416 -8 457 -10 88 -36 184 -57 205 -8 8 -21 29 -29 47 -26 59
-60 111 -80 122 -10 6 -31 25 -47 43 -16 18 -46 42 -66 55 -20 12 -44 30 -53
39 -27 27 -171 78 -243 85 -36 4 -66 11 -66 15 0 5 -31 9 -70 9 -40 0 -70 -4
-70 -10z"/>
<path d="M10890 4090 c0 -5 -15 -10 -33 -10 -91 0 -256 -63 -320 -122 -17 -15
-50 -40 -74 -55 -24 -15 -43 -32 -43 -38 0 -6 -14 -26 -31 -45 -37 -40 -90
-137 -109 -200 -8 -25 -18 -48 -22 -51 -19 -13 -30 -199 -19 -297 7 -53 15
-99 19 -102 4 -3 16 -32 26 -65 10 -33 31 -81 47 -108 16 -26 29 -52 29 -57 0
-6 3 -10 8 -10 4 0 35 -26 68 -58 105 -98 146 -132 158 -132 6 0 19 -9 28 -19
22 -26 134 -59 245 -73 116 -14 281 3 373 39 36 15 67 29 70 32 3 4 18 15 33
24 34 22 48 33 112 93 l50 47 3 -122 3 -121 89 0 90 0 0 715 0 715 -90 0 -90
0 0 -104 0 -105 -32 30 c-18 17 -51 42 -73 57 -22 14 -44 31 -50 39 -20 26
-179 82 -253 89 -40 4 -72 11 -72 15 0 5 -31 9 -70 9 -40 0 -70 -4 -70 -10z
m171 -169 c81 -14 136 -30 151 -44 7 -7 28 -22 47 -33 19 -10 49 -35 65 -54
17 -19 51 -55 74 -79 24 -25 51 -62 59 -83 8 -21 18 -38 23 -38 40 0 40 -407
0 -440 -4 -3 -17 -27 -29 -53 -32 -66 -142 -175 -217 -215 -34 -17 -69 -32
-77 -32 -8 0 -17 -5 -19 -10 -2 -6 -45 -16 -96 -22 -72 -9 -108 -9 -164 0 -40
7 -75 16 -78 20 -3 5 -25 14 -50 21 -64 18 -149 77 -201 139 -24 29 -46 58
-48 65 -2 7 -10 15 -17 20 -7 4 -21 33 -31 65 -10 31 -21 60 -26 63 -19 14
-30 158 -19 241 7 45 16 84 20 87 4 3 16 29 26 56 10 28 24 55 30 60 6 6 33
38 59 73 27 34 52 62 57 62 5 0 22 12 38 28 51 47 68 59 108 73 111 36 214 46
315 30z"/>
<path d="M1020 3355 l0 -715 90 0 89 0 -2 438 -2 437 29 70 c16 38 34 75 40
81 6 6 33 37 60 68 27 31 54 56 60 56 6 0 24 14 39 30 16 17 40 33 53 36 13 3
24 10 24 15 0 13 91 37 170 45 l70 7 0 73 0 74 -67 0 c-38 0 -97 -7 -133 -15
-76 -18 -182 -62 -193 -81 -4 -8 -12 -14 -17 -14 -15 0 -101 -61 -113 -81 -7
-11 -15 -19 -19 -19 -5 0 -8 47 -8 105 l0 105 -85 0 -85 0 0 -715z"/>
<path d="M3510 4063 c0 -5 11 -21 24 -36 14 -16 43 -66 65 -112 23 -46 45 -85
49 -87 4 -2 30 -49 57 -105 28 -56 57 -105 66 -108 9 -3 38 -49 64 -103 27
-53 51 -99 55 -102 4 -3 29 -45 55 -95 26 -49 53 -95 61 -102 13 -14 74 -137
74 -152 0 -4 14 -22 30 -40 17 -17 49 -66 72 -109 23 -42 44 -79 48 -82 4 -3
29 -49 55 -103 27 -53 54 -96 59 -94 6 1 29 39 51 83 23 45 48 89 58 98 9 10
17 23 17 31 0 7 6 15 13 18 7 2 28 37 47 76 19 39 38 71 42 71 4 0 28 44 54
97 25 53 53 103 61 111 8 8 28 43 45 78 17 35 38 71 47 81 9 10 22 30 28 46 7
15 17 27 23 27 5 0 10 5 10 11 0 17 49 113 64 124 11 9 33 49 94 170 9 17 18
32 22 35 4 3 23 37 42 76 44 88 59 114 76 132 6 7 12 17 12 21 0 4 9 17 20 29
l21 22 -109 0 -109 0 -28 -57 c-16 -32 -34 -61 -40 -65 -6 -3 -24 -35 -40 -69
-17 -35 -37 -71 -45 -80 -31 -36 -44 -57 -91 -149 -17 -33 -36 -66 -44 -74 -8
-7 -35 -57 -60 -110 -26 -53 -50 -96 -54 -96 -4 0 -24 -34 -44 -75 -21 -41
-42 -75 -47 -75 -5 0 -12 -10 -16 -22 -4 -13 -11 -26 -16 -29 -6 -4 -29 -44
-52 -90 -22 -46 -46 -85 -51 -86 -6 -2 -33 43 -60 99 -28 57 -55 108 -62 113
-6 6 -26 38 -43 73 -17 34 -42 73 -54 86 -13 12 -42 61 -65 109 -23 47 -48 93
-56 100 -8 8 -35 54 -60 103 -24 48 -49 90 -53 93 -5 3 -28 45 -50 92 -23 48
-54 100 -69 117 -16 17 -36 44 -45 61 l-17 31 -101 0 c-55 0 -100 -3 -100 -7z"/>
<path d="M9747 4052 c-58 -39 -72 -62 -72 -122 0 -44 5 -61 23 -80 12 -13 22
-27 22 -30 0 -13 73 -40 109 -40 85 0 135 45 147 132 8 57 -15 111 -58 138
-43 26 -132 27 -171 2z"/>
<path d="M9750 3130 l0 -490 80 0 80 0 0 490 0 490 -80 0 -80 0 0 -490z"/>
</g>
</svg>
