<?xml version="1.0" standalone="no"?>
<!DOCTYPE svg PUBLIC "-//W3C//DTD SVG 20010904//EN"
 "http://www.w3.org/TR/2001/REC-SVG-20010904/DTD/svg10.dtd">
<svg version="1.0" xmlns="http://www.w3.org/2000/svg"
 width="311.000000pt" height="316.000000pt" viewBox="0 0 311.000000 316.000000"
 preserveAspectRatio="xMidYMid meet">
<metadata>
Created by potrace 1.15, written by Peter Selinger 2001-2017
</metadata>
<g transform="translate(0.000000,316.000000) scale(0.100000,-0.100000)"
fill="#000000" stroke="none">
<path d="M1076 1942 c-3 -5 -6 -69 -7 -143 l-1 -134 28 0 29 0 3 124 c2 105 0
127 -14 142 -18 21 -30 24 -38 11z"/>
<path d="M1340 1544 l0 -404 -85 0 c-68 0 -85 -3 -85 -15 0 -25 36 -35 129
-35 68 0 93 4 105 16 21 21 21 26 -14 91 -24 45 -30 68 -30 120 0 62 24 132
50 148 14 9 12 47 -5 88 -19 45 -19 129 0 182 19 51 20 179 2 193 -7 6 -25 13
-40 16 l-27 5 0 -405z"/>
<path d="M2327 1929 c35 -38 53 -93 53 -159 l0 -60 -59 0 c-69 0 -91 -6 -91
-27 0 -11 -5 -10 -25 4 -20 15 -24 27 -25 68 0 28 -5 57 -10 65 -15 23 -44 -1
-48 -40 -6 -55 15 -85 82 -125 79 -46 152 -108 174 -149 13 -24 17 -57 17
-146 0 -103 -2 -119 -24 -153 -39 -63 -88 -82 -213 -82 -58 0 -104 -4 -101 -9
10 -16 69 -35 130 -41 119 -14 223 28 265 108 20 36 23 57 23 147 0 88 -4 112
-22 146 -25 46 -71 90 -152 143 l-56 36 94 3 c53 2 101 8 109 14 19 17 12 131
-12 181 -20 41 -65 80 -106 92 l-25 7 22 -23z"/>
<path d="M1753 1792 c48 -53 61 -164 27 -232 -11 -21 -24 -41 -30 -45 -12 -8
50 -125 66 -125 24 0 34 25 23 56 -10 25 -7 36 15 78 53 99 18 223 -76 272
-36 19 -44 18 -25 -4z"/>
<path d="M1068 1313 l-3 -168 -82 -3 c-64 -2 -83 -6 -83 -17 0 -8 9 -19 19
-25 28 -15 184 -13 202 3 11 10 13 45 11 195 l-3 182 -29 0 -30 0 -2 -167z"/>
<path d="M1886 1287 c-17 -13 -16 -17 14 -76 17 -35 30 -64 28 -66 -2 -1 -43
-5 -91 -8 -83 -5 -89 -4 -103 18 l-14 22 -53 -26 c-41 -20 -67 -25 -125 -26
-71 0 -72 -1 -52 -17 52 -42 141 -45 228 -7 40 17 46 17 73 3 21 -10 53 -14
111 -12 105 4 114 16 69 86 -17 28 -35 66 -38 86 -6 38 -18 44 -47 23z"/>
</g>
</svg>
