<?xml version="1.0" standalone="no"?>
<!DOCTYPE svg PUBLIC "-//W3C//DTD SVG 20010904//EN"
 "http://www.w3.org/TR/2001/REC-SVG-20010904/DTD/svg10.dtd">
<svg version="1.0" xmlns="http://www.w3.org/2000/svg"
 width="700.000000pt" height="700.000000pt" viewBox="0 0 700.000000 700.000000"
 preserveAspectRatio="xMidYMid meet">
<metadata>
Created by potrace 1.11, written by Peter Selinger 2001-2013
</metadata>
<g transform="translate(0.000000,700.000000) scale(0.100000,-0.100000)"
fill="#000000" stroke="none">
<path d="M0 3500 l0 -3500 3500 0 3500 0 0 3500 0 3500 -3500 0 -3500 0 0
-3500z m6656 5 c0 -1727 -1 -3145 -3 -3150 -2 -7 -1059 -10 -3151 -10 l-3147
0 -1 3140 c0 1727 1 3145 3 3150 2 7 1060 10 3151 10 l3147 0 1 -3140z"/>
<path d="M2204 5253 c-42 -56 -44 -59 -99 -116 -27 -29 -68 -66 -90 -82 -22
-17 -42 -32 -45 -36 -3 -3 -26 -14 -52 -25 -44 -17 -48 -22 -49 -54 -1 -19 -2
-49 -4 -66 -3 -39 -34 -182 -45 -209 -14 -32 -52 -167 -57 -202 -3 -18 -9 -33
-14 -33 -5 0 -9 -7 -9 -17 0 -16 -25 -109 -40 -148 -4 -11 -20 -63 -35 -115
-30 -104 -44 -152 -56 -190 -4 -14 -19 -65 -34 -115 -15 -49 -35 -117 -45
-150 -10 -33 -26 -87 -35 -120 -9 -33 -21 -69 -25 -80 -8 -19 -39 -124 -45
-155 -2 -8 -17 -60 -35 -115 -17 -55 -36 -118 -42 -140 -5 -22 -14 -49 -18
-60 -4 -11 -16 -47 -25 -80 -9 -33 -19 -67 -22 -75 -3 -8 -7 -20 -8 -26 -4
-18 -75 -244 -111 -354 -18 -58 -46 -141 -60 -185 -14 -44 -28 -87 -31 -95 -6
-15 -7 -19 -14 -50 -2 -8 -6 -17 -9 -20 -3 -3 -16 -27 -30 -55 -14 -27 -44
-69 -67 -91 -45 -43 -104 -66 -210 -79 -58 -7 -63 -15 -68 -91 -1 -28 4 -54
15 -72 l18 -29 94 5 c117 8 695 8 765 1 47 -5 53 -3 64 19 14 26 17 91 6 133
-6 24 -16 29 -104 49 -53 12 -102 23 -107 24 -23 4 -82 40 -90 55 -11 17 -15
61 -6 61 3 0 5 10 6 23 1 42 42 229 61 277 3 8 7 20 8 26 8 33 79 295 91 332
8 23 14 49 14 57 0 30 41 123 58 131 25 11 685 13 699 2 7 -5 16 -7 21 -4 16
10 61 -44 72 -87 5 -23 15 -56 20 -73 6 -17 10 -40 10 -52 0 -12 4 -30 9 -40
10 -18 64 -237 64 -259 0 -7 5 -13 10 -13 6 0 8 -2 5 -5 -3 -4 5 -47 18 -98
29 -109 43 -175 50 -239 5 -42 3 -50 -21 -73 -16 -14 -36 -25 -45 -25 -9 0
-20 -3 -24 -7 -3 -4 -12 -8 -19 -9 -7 -1 -32 -5 -56 -9 -68 -10 -90 -22 -97
-52 -16 -63 -3 -130 27 -141 11 -5 46 -5 77 -1 47 5 993 4 1111 -2 18 -1 37 4
41 11 5 9 9 8 13 -3 4 -11 20 -13 74 -8 90 8 1044 8 1105 0 26 -3 52 -2 59 2
14 8 25 115 15 153 -6 23 -27 32 -117 50 -121 24 -170 60 -194 140 -8 25 -11
46 -8 46 3 0 1 6 -4 13 -14 18 -17 128 -18 629 0 419 1 459 17 474 13 13 38
18 98 20 96 4 149 -13 192 -58 37 -40 48 -61 87 -178 18 -52 37 -106 43 -120
17 -39 24 -59 58 -150 93 -251 233 -552 310 -665 175 -260 392 -376 705 -378
180 -2 292 14 343 46 16 11 15 97 -2 119 -7 10 -16 15 -19 11 -4 -3 -7 -1 -7
6 0 7 -4 10 -9 7 -5 -3 -34 3 -65 14 -179 61 -321 242 -520 662 -31 65 -56
120 -56 122 0 3 -16 39 -35 80 -19 42 -35 79 -35 82 0 3 -6 20 -14 37 -26 56
-49 112 -51 123 -2 6 -10 27 -18 45 -41 93 -67 162 -67 175 0 8 -4 14 -10 14
-5 0 -10 8 -10 18 0 11 -7 34 -16 52 -9 18 -19 52 -22 76 -4 37 -1 46 23 68
15 14 34 26 41 26 8 0 14 5 14 10 0 6 6 10 14 10 8 0 16 3 18 8 2 4 23 23 48
42 48 36 150 140 150 152 0 4 7 13 15 22 49 49 128 251 141 362 16 136 6 328
-21 429 -33 122 -58 177 -123 280 -40 63 -184 215 -203 215 -4 0 -14 6 -21 13
-26 26 -105 66 -183 92 -44 15 -87 30 -95 33 -8 3 -24 7 -35 9 -30 5 -75 13
-125 23 -87 18 -227 25 -465 25 -252 -1 -598 -11 -662 -20 -21 -3 -72 -7 -113
-10 -202 -12 -219 -20 -220 -102 0 -81 12 -94 105 -109 165 -28 194 -59 213
-224 9 -80 10 -2460 1 -2550 -4 -36 -9 -74 -12 -85 -3 -11 -6 -27 -6 -35 -2
-32 -55 -99 -90 -114 -20 -8 -76 -25 -126 -36 -49 -12 -93 -27 -97 -33 -6 -9
-8 -9 -8 0 0 11 -16 16 -85 28 -30 5 -39 7 -108 24 -44 11 -108 56 -115 83 -2
10 -8 18 -12 18 -17 0 -108 254 -127 350 -2 14 -7 32 -9 40 -3 8 -6 17 -6 20
0 3 -5 16 -10 30 -5 14 -11 32 -13 40 -2 8 -9 35 -16 60 -7 25 -13 50 -15 55
-1 6 -14 53 -29 105 -15 52 -28 100 -30 105 -1 6 -5 17 -8 25 -3 8 -10 35 -16
60 -6 25 -20 77 -31 115 -11 39 -22 78 -25 89 -2 10 -12 44 -21 75 -9 31 -18
67 -20 79 -3 13 -11 43 -19 65 -8 23 -15 52 -15 64 0 12 -4 24 -9 27 -4 3 -12
25 -16 48 -4 24 -9 48 -11 53 -30 102 -97 336 -101 355 -7 35 -9 43 -16 60 -5
13 -103 363 -112 400 -2 8 -8 30 -14 48 -5 18 -10 34 -11 37 0 3 -2 10 -5 17
-7 24 -48 173 -56 208 -4 19 -20 78 -34 130 -37 132 -44 160 -38 160 3 0 1 6
-5 13 -10 12 -27 76 -24 89 1 4 -5 25 -13 47 -8 23 -14 45 -15 49 -3 61 -31
107 -71 117 -21 5 -30 0 -55 -32z m2549 -287 c143 -32 272 -142 349 -296 24
-48 66 -178 73 -226 30 -192 24 -406 -14 -557 -22 -85 -85 -227 -101 -227 -6
0 -10 -5 -10 -11 0 -12 -73 -89 -85 -89 -3 0 -13 -7 -21 -15 -8 -8 -45 -24
-82 -35 -55 -17 -89 -21 -187 -19 -130 3 -164 13 -193 57 -16 24 -17 80 -17
682 0 727 -2 707 63 733 37 15 165 16 225 3z m-2803 -605 c0 -11 5 -23 10 -26
6 -3 10 -19 10 -34 0 -15 5 -32 12 -39 7 -7 9 -12 5 -12 -3 0 -2 -12 4 -27 8
-22 42 -143 64 -233 2 -8 11 -44 20 -80 9 -36 20 -74 25 -85 5 -11 11 -33 14
-50 2 -16 16 -73 30 -125 14 -52 29 -106 31 -119 3 -13 17 -67 30 -120 39
-156 37 -195 -9 -203 -11 -2 -135 -3 -275 -3 -248 1 -254 1 -271 22 -14 18
-16 31 -9 70 8 43 25 117 35 151 2 7 4 14 4 17 1 3 6 19 11 37 6 18 12 40 14
48 12 52 37 147 42 160 3 8 8 24 10 35 8 38 11 50 13 50 1 0 3 7 5 15 7 36 36
146 42 160 7 17 10 27 16 55 2 11 7 27 10 35 3 8 17 60 32 115 15 55 29 107
33 115 7 18 6 18 16 58 8 35 26 44 26 13z"/>
</g>
</svg>
